<?xml version="1.0" standalone="no"?>
<!DOCTYPE svg PUBLIC "-//W3C//DTD SVG 20010904//EN"
 "http://www.w3.org/TR/2001/REC-SVG-20010904/DTD/svg10.dtd">
<svg version="1.0"  xmlns="http://www.w3.org/2000/svg"
 width="500.000000pt" height="511.000000pt" viewBox="0 0 500.000000 511.000000"
 preserveAspectRatio="xMidYMid meet">

<g transform="translate(0.000000,511.000000) scale(0.100000,-0.100000)"
fill="#000000" stroke="none">
<path d="M0 4116 l0 -995 118 -3 c64 -2 1189 -5 2500 -6 l2382 -2 0 1000 0
1000 -2500 0 -2500 0 0 -994z m768 -3 l-3 -498 -110 -3 c-60 -2 -120 0 -132 3
l-23 5 0 495 0 495 135 0 135 0 -2 -497z m1753 471 c69 -32 91 -74 97 -189 2
-51 2 -109 -2 -129 -10 -53 -57 -102 -118 -122 l-51 -17 48 -18 c105 -40 139
-105 133 -256 -3 -86 -6 -104 -28 -137 -33 -48 -106 -83 -200 -96 -81 -10
-998 -14 -1024 -4 -14 5 -16 59 -16 500 l0 495 558 -3 c544 -3 558 -4 603 -24z
m1644 -463 c180 -269 324 -494 321 -500 -8 -12 -251 -16 -279 -5 -9 3 -46 53
-83 110 l-67 104 -366 -2 -366 -3 -18 -30 c-10 -16 -40 -65 -67 -107 l-50 -78
-112 1 c-62 0 -121 3 -130 7 -15 6 14 54 171 292 331 502 443 673 448 686 4
11 36 14 138 14 l133 0 327 -489z" fill="#903137"/>
<path d="M1630 4325 l0 -115 335 0 c421 0 413 -3 403 142 -3 44 -10 64 -23 74
-15 11 -89 14 -367 14 l-348 0 0 -115z" fill="#903137"/>
<path d="M1632 3918 l3 -123 340 0 c417 0 395 -6 395 118 0 45 -4 87 -8 93
-20 31 -54 34 -392 34 l-341 0 3 -122z" fill="#903137"/>
<path d="M3664 4363 c-15 -27 -69 -114 -120 -195 -51 -80 -90 -149 -86 -152 7
-8 467 -8 474 0 7 6 -223 393 -234 394 -3 0 -19 -21 -34 -47z" fill="#903137"/>
<path d="M0 1495 l0 -1495 2500 0 2500 0 0 1495 0 1495 -2500 0 -2500 0 0
-1495z m1905 698 c159 -156 290 -282 291 -280 5 4 25 144 63 427 18 128 13
121 79 114 31 -4 66 -10 78 -15 l21 -7 -23 -159 c-13 -87 -28 -196 -34 -243
-6 -47 -18 -123 -25 -170 -7 -47 -17 -108 -20 -137 l-7 -51 -71 -12 c-149 -23
-208 -32 -451 -65 -137 -19 -251 -33 -253 -31 -8 7 -33 140 -28 145 3 2 45 10
93 17 48 7 134 20 192 28 58 9 137 20 175 26 39 6 76 12 83 15 8 3 -101 118
-272 286 -157 155 -286 286 -286 292 0 14 92 108 101 105 4 -2 136 -130 294
-285z m1540 236 l50 -51 -289 -284 c-158 -157 -287 -287 -285 -288 4 -3 360
-57 494 -75 55 -7 51 3 46 -106 -3 -59 -5 -60 -152 -41 -74 9 -156 21 -184 26
-27 6 -138 22 -245 36 -107 15 -198 29 -202 33 -7 6 -15 55 -44 266 -8 61 -21
153 -28 205 -19 131 -36 251 -39 275 -2 17 8 21 71 30 85 13 87 12 97 -76 3
-30 12 -94 20 -144 7 -49 18 -121 24 -160 6 -38 13 -89 16 -112 4 -24 10 -43
13 -43 4 1 133 127 287 280 154 154 285 280 290 280 6 0 33 -23 60 -51z
m-1675 -1033 c58 -8 206 -29 330 -47 124 -17 228 -34 231 -37 4 -4 14 -63 23
-132 9 -69 21 -154 26 -190 5 -36 16 -117 25 -180 9 -63 21 -146 27 -183 7
-41 8 -71 2 -76 -13 -12 -137 -32 -145 -23 -3 4 -12 50 -18 102 -7 52 -17 118
-21 145 -5 28 -17 104 -26 170 -9 66 -18 122 -20 124 -2 2 -135 -125 -295
-283 l-292 -287 -49 48 c-26 26 -48 52 -48 58 0 5 127 137 282 292 172 172
279 286 273 291 -6 5 -55 14 -110 21 -55 7 -136 19 -180 26 -44 7 -107 16
-140 20 -112 12 -108 9 -102 79 9 93 9 94 70 85 29 -4 99 -15 157 -23z m1698
-34 c7 -35 12 -69 9 -76 -3 -7 -44 -17 -98 -25 -52 -7 -134 -19 -184 -26 -49
-8 -129 -19 -177 -26 -49 -7 -88 -15 -88 -18 0 -3 128 -134 285 -291 l285
-285 -55 -55 -55 -55 -283 283 c-155 155 -287 282 -293 282 -7 0 -14 -27 -18
-62 -4 -35 -11 -90 -16 -123 -12 -74 -36 -243 -45 -309 l-7 -49 -53 7 c-85 10
-105 20 -100 53 2 15 11 75 19 133 8 58 22 152 30 210 9 58 23 161 32 230 9
69 20 134 24 145 7 19 27 24 171 44 90 13 196 28 234 33 39 5 122 17 185 27
63 11 130 18 149 17 34 -1 35 -2 49 -64z" fill="#903137"/>
</g>
</svg>
