<?xml version="1.0" standalone="no"?>
<!DOCTYPE svg PUBLIC "-//W3C//DTD SVG 20010904//EN"
 "http://www.w3.org/TR/2001/REC-SVG-20010904/DTD/svg10.dtd">
<svg version="1.0" xmlns="http://www.w3.org/2000/svg"
 width="860.000000pt" height="860.000000pt" viewBox="0 0 860.000000 860.000000"
 preserveAspectRatio="xMidYMid meet">

<g transform="translate(0.000000,860.000000) scale(0.100000,-0.100000)"
fill="#000000" stroke="none">
<path d="M3990 8590 c-1066 -88 -1996 -516 -2739 -1261 -829 -831 -1281 -1967
-1248 -3139 27 -958 351 -1842 948 -2585 86 -107 283 -326 298 -332 3 -1 32
77 64 175 304 932 1041 1675 1976 1994 234 79 547 143 759 155 61 3 112 10
112 15 0 4 -17 8 -37 8 -58 0 -201 27 -310 59 -893 258 -1432 1155 -1239 2063
31 149 65 246 138 398 246 516 711 868 1291 977 116 22 455 25 567 5 262 -46
492 -135 695 -269 609 -401 909 -1121 764 -1835 -30 -148 -72 -268 -154 -433
-192 -388 -509 -681 -913 -847 -122 -50 -336 -105 -441 -114 -97 -8 -107 -24
-17 -24 122 0 358 -36 561 -86 541 -133 1059 -427 1460 -829 363 -364 629
-804 782 -1292 21 -68 41 -122 45 -120 15 5 209 222 305 342 126 155 304 421
404 600 484 869 649 1898 463 2885 -214 1138 -881 2141 -1856 2789 -564 375
-1205 605 -1908 687 -159 18 -618 26 -770 14z"/>
</g>
</svg>
